PathFileType	3	(X/Y/Z)	F:\ViconData\AntennenMessung\Messung1\Session1\ID05.trc
DataRate	CameraRate	NumFrames	NumMarkers	Units	OrigDataRate	OrigDataStartFrame	OrigNumFrames
120.0	120.0	4	70	mm	120.0	1	1328	
Frame#	Time	Ashort			Along			Atop			A4			Bshort			Blong			Btop			B4			Cshort			Clong			Ctop			C4			Dshort			Dlong			Dtop			D4			Eshort			Elong			Etop			E4			Fshort			Flong			Ftop			F4			Gshort			Glong			Gtop			G4			Hshort			Hlong			Htop			H4			I1			I2			I3			I4			I5			WandAshort			WandAlong			WandAtop			WandA4			WandA15			WandBshort			WandB4			WandB5			WandBtop			WandBlong			WandCshort			WandClong			WandCtop			WandC4			WandC5			Acenter			Aantenna			Bcenter			Bantenna			Ccenter			Cantenna			Dcenter			Dantenna			Ecenter			Eantenna			Fcenter			Fantenna			Gcenter			Gantenna			Hcenter			Hantenna			Icenter			Iantenna			
		X1	Y1	Z1	X2	Y2	Z2	X3	Y3	Z3	X4	Y4	Z4	X5	Y5	Z5	X6	Y6	Z6	X7	Y7	Z7	X8	Y8	Z8	X9	Y9	Z9	X10	Y10	Z10	X11	Y11	Z11	X12	Y12	Z12	X13	Y13	Z13	X14	Y14	Z14	X15	Y15	Z15	X16	Y16	Z16	X17	Y17	Z17	X18	Y18	Z18	X19	Y19	Z19	X20	Y20	Z20	X21	Y21	Z21	X22	Y22	Z22	X23	Y23	Z23	X24	Y24	Z24	X25	Y25	Z25	X26	Y26	Z26	X27	Y27	Z27	X28	Y28	Z28	X29	Y29	Z29	X30	Y30	Z30	X31	Y31	Z31	X32	Y32	Z32	X33	Y33	Z33	X34	Y34	Z34	X35	Y35	Z35	X36	Y36	Z36	X37	Y37	Z37	X38	Y38	Z38	X39	Y39	Z39	X40	Y40	Z40	X41	Y41	Z41	X42	Y42	Z42	X43	Y43	Z43	X44	Y44	Z44	X45	Y45	Z45	X46	Y46	Z46	X47	Y47	Z47	X48	Y48	Z48	X49	Y49	Z49	X50	Y50	Z50	X51	Y51	Z51	X52	Y52	Z52	X53	Y53	Z53	X54	Y54	Z54	X55	Y55	Z55	X56	Y56	Z56	X57	Y57	Z57	X58	Y58	Z58	X59	Y59	Z59	X60	Y60	Z60	X61	Y61	Z61	X62	Y62	Z62	X63	Y63	Z63	X64	Y64	Z64	X65	Y65	Z65	X66	Y66	Z66	X67	Y67	Z67	X68	Y68	Z68	X69	Y69	Z69	X70	Y70	Z70	
1	0	-1038.3002	214.42508	-1644.1775	-1109.3351	203.81485	-1599.6111	-1063.5784	172.62842	-1625.6399	-1054.1827	262.0372	-1634.9877	-1353.0875	234.7652	1003.9611	-1281.4041	227.06171	1052.4012	-1323.004	194.04083	1020.8266	-1284.745	287.78247	1052.8064	813.922	187.62823	1209.7081	892.96875	179.29715	1178.6907	844.16425	145.47194	1198.3668	860.44727	292.26993	1167.4581	1115.7272	209.53589	-1401.4802	1055.7759	194.28709	-1460.3068	1094.9845	163.39876	-1423.7572	1069.8357	238.47714	-1426.0312	-1204.4587	1685.8845	-1563.4056	-1129.1074	1688.292	-1606.3754	-1173.119	1724.439	-1582.0199	-1133.5361	1581.0154	-1603.5195	-1239.8246	1699.4453	1119.4171	-1309.418	1698.8422	1071.8135	-1270.2867	1736.1342	1096.7028	-1244.6154	1594.274	1106.7186	988.82074	1664.1627	1162.3654	955.82086	1702.1963	1181.1622	922.6275	1662.0627	1215.0404	939.72839	1659.3384	1160.033	999.21741	1668.4738	-1579.5254	1058.7799	1669.9127	-1518.7572	1025.0481	1707.9557	-1551.1859	1059.2598	1672.199	-1585.6562	-187.93193	1141.478	505.96548	-185.57021	1144.2484	427.04297	-187.07068	1179.6014	474.89844	-224.11865	1141.2205	473.01401	-138.71294	1144.2008	475.25909																																														-1068.7759	209.87299	-1625.0573	-1074.1654	248.49408	-1624.453	-1321.8538	231.40866	1025.0673	-1320.6616	270.14182	1029.4628	847.51233	184.088	1196.5273	850.87732	222.89854	1194.6788	1088.9276	202.71931	-1427.777	1083.0203	241.06944	-1431.6975	-1171.8949	1686.9248	-1581.9752	-1170.623	1647.9457	-1581.9288	-1270.9432	1699.1755	1098.131	-1271.6354	1660.2107	1099.6367	953.47021	1704.9053	1182.5011	972.86743	1731.8491	1162.037	1026.5004	1669.1327	-1551.6901	1027.9581	1630.1633	-1552.1962	-186.9635	1142.614	473.6033	-186.85056	1103.6381	472.23859
2	0.0083333333	-1038.2903	214.4325	-1644.17	-1109.3507	203.81242	-1599.605	-1063.5312	172.65791	-1625.6469	-1053.9843	261.92538	-1635.0194	-1352.9363	235.39195	1003.9464	-1281.3754	227.04819	1052.4249	-1322.9491	194.12009	1020.7719	-1284.7062	287.82965	1052.7417	813.97589	187.76233	1209.6835	892.95599	179.16345	1178.6605	844.61041	145.10753	1198.4414	860.72168	291.96497	1169.8354	1115.7275	209.55568	-1401.4657	1056.2168	194.0882	-1460.3304	1094.9907	163.58072	-1423.8102	1070.0277	238.80386	-1425.9229	-1204.465	1685.8903	-1563.4042	-1129.1085	1688.2051	-1606.0502	-1173.1185	1724.4275	-1582.0101	-1133.5345	1580.9954	-1603.4982	-1239.7975	1699.4244	1119.408	-1309.4315	1698.8542	1071.8173	-1270.3105	1736.1727	1096.7092	-1244.7434	1593.6697	1106.297	988.84454	1664.1461	1162.3835	955.47064	1701.1128	1182.3584	922.55603	1662.0339	1214.9722	939.72913	1659.323	1160.0492	999.21106	1668.4723	-1579.5286	1058.778	1669.9193	-1518.7598	1025.0498	1707.9517	-1551.184	1059.2573	1672.1962	-1585.6597	-187.93115	1141.4857	505.97018	-185.65736	1144.113	427.10443	-186.99942	1179.489	474.86713	-224.10233	1141.2268	472.99603	-139.26337	1144.0675	474.68985																																														-1068.7365	209.88225	-1625.0758	-1074.1367	248.50201	-1624.4834	-1321.563	231.73393	1025.2	-1320.137	270.44055	1029.7566	848.01489	184.05637	1196.313	851.40594	222.85078	1194.1931	1088.9489	202.59561	-1427.9536	1083.0131	240.92569	-1432.0244	-1171.8737	1686.8915	-1581.8483	-1170.5812	1647.9132	-1581.6801	-1270.9633	1699.1692	1098.1079	-1271.6509	1660.203	1099.5808	951.93158	1705.0326	1184.4763	970.91583	1732.8209	1164.7683	1026.5039	1669.1353	-1551.6848	1027.9637	1630.1658	-1552.1877	-186.99893	1142.5627	473.63693	-186.99843	1103.5844	472.33838
3	0.016666667	-1038.2808	214.44551	-1644.1654	-1109.347	203.79028	-1599.6104	-1063.558	172.62242	-1625.6431	-1054.1936	262.0546	-1635.0098	-1353.0696	234.78137	1003.9636	-1281.3884	227.09795	1052.3879	-1322.9518	194.10538	1020.7681	-1284.6826	287.84976	1052.7574	813.87433	187.74533	1209.6042	893.02496	179.26978	1178.6847	844.60553	145.1142	1198.4576	860.56201	292.18839	1167.4642	1115.7294	209.56747	-1401.4684	1056.1781	194.13866	-1460.3246	1095.0072	163.48586	-1423.7754	1069.8278	238.50531	-1426.0299	-1204.5581	1685.9854	-1563.175	-1129.1705	1688.3824	-1606.8126	-1173.1683	1724.3223	-1581.8965	-1133.5597	1581.0624	-1603.5769	-1239.8146	1699.4353	1119.4159	-1309.4099	1698.8154	1071.8037	-1270.2787	1736.1206	1096.6906	-1244.6084	1594.7089	1106.7792	988.92346	1664.2507	1162.3772	955.74585	1702.1793	1181.1213	922.61444	1661.974	1214.9795	939.74915	1659.3551	1159.9983	999.21204	1668.4851	-1579.5242	1058.7736	1669.9231	-1518.7642	1025.0479	1707.9602	-1551.1942	1059.2627	1672.2046	-1585.6655	-187.95123	1141.4821	505.97589	-185.53606	1144.0796	427.02777	-187.08652	1179.6213	474.8811	-224.11058	1141.2216	472.99869	-138.71977	1144.2028	475.26996																																														-1068.7711	209.87398	-1625.0493	-1074.1755	248.4928	-1624.4338	-1321.8472	231.43468	1025.0559	-1320.7012	270.16318	1029.5044	847.9364	184.09792	1196.2981	851.25153	222.89728	1194.149	1088.963	202.63274	-1427.9221	1083.0447	240.96658	-1431.9828	-1172.0405	1687.0193	-1581.9976	-1170.8623	1648.0371	-1582.1033	-1270.9324	1699.1582	1098.1271	-1271.6215	1660.1937	1099.6417	953.34784	1704.9207	1182.4762	972.67651	1731.9305	1162.0343	1026.4939	1669.1437	-1551.6931	1027.9458	1630.174	-1552.194	-186.96277	1142.545	473.66501	-186.83269	1103.5662	472.38651
4	0.025	-1038.2904	214.42476	-1644.1575	-1109.3267	203.81441	-1599.6179	-1063.5599	172.62616	-1625.6221	-1053.9932	261.89041	-1635.0316	-1352.8833	235.49352	1003.8845	-1281.3544	227.02689	1052.4431	-1322.9688	194.10516	1020.7306	-1284.7119	287.83838	1052.7434	813.93176	187.81393	1209.5468	892.50269	178.39447	1179.3229	844.64758	145.01924	1198.4636	860.49847	292.16	1167.3604	1115.6661	209.47162	-1401.5277	1056.1951	194.12296	-1460.3318	1094.9994	163.63513	-1423.8319	1069.8385	238.49074	-1426.045	-1204.4603	1685.8763	-1563.3971	-1129.0961	1688.3013	-1606.3809	-1173.1111	1724.428	-1582.0121	-1133.5388	1581.0142	-1603.509	-1239.8026	1699.4229	1119.4092	-1309.4629	1698.9011	1071.8397	-1270.3357	1736.2086	1096.7251	-1244.6143	1594.2808	1106.5702	988.80518	1664.1405	1162.3844	956.05872	1702.3755	1181.2336	922.57904	1662.0305	1215.0176	939.73248	1659.3396	1160.0811	999.21533	1668.498	-1579.536	1058.9758	1670.2094	-1518.7191	1025.0566	1707.9709	-1551.1779	1059.2528	1672.2054	-1585.658	-187.94482	1141.4911	505.96655	-185.54414	1144.0785	427.02942	-187.07027	1179.6162	474.88577	-224.11845	1141.2249	473.00842	-138.71506	1144.2087	475.27087																																														-1068.7645	209.87292	-1625.05	-1074.1614	248.49318	-1624.4572	-1321.5247	231.78169	1025.1727	-1320.0413	270.48538	1029.7361	848.43921	183.677	1196.2727	852.24023	222.42914	1194.0764	1088.9819	202.58479	-1427.9126	1083.0591	240.92259	-1431.9291	-1171.8842	1686.9244	-1581.9767	-1170.6091	1647.9454	-1581.9399	-1271.0005	1699.1891	1098.1047	-1271.7004	1660.2224	1099.5569	953.89929	1704.897	1182.4767	973.51575	1731.7449	1162.0958	1026.6306	1669.2831	-1551.6359	1028.2161	1630.318	-1552.0972	-186.96272	1142.5496	473.67398	-186.84966	1103.5704	472.39972
